PathFileType	4	(X/Y/Z)	./resultDataOpenSim/trcMotMarkerGrf/sub09/qtm-05-02.trc
DataRate	CameraRate	NumFrames	NumMarkers	Units	OrigDataRate	OrigDataStartFrame	OrigNumFrames
250.000000	250.000000	12	24	m	250.000000	450	514
Frame#	Time	L.Toe.Tip			R.Toe.Tip			L.Ankle.Lat			R.Ankle.Lat			L.Ankle.Med			R.Ankle.Med			L.Heel			R.Heel			L.Knee.Lat			R.Knee.Lat			L.Knee.Med			R.Knee.Med			L.Thigh.Upper			R.Thigh.Upper			L.ASIS			R.ASIS			V.Sacral			L.Acromium			R.Acromium			C7			L.Elbow			R.Elbow			L.Wrist.Lat			R.Wrist.Lat
		X1	Y1	Z1	X2	Y2	Z2	X3	Y3	Z3	X4	Y4	Z4	X5	Y5	Z5	X6	Y6	Z6	X7	Y7	Z7	X8	Y8	Z8	X9	Y9	Z9	X10	Y10	Z10	X11	Y11	Z11	X12	Y12	Z12	X13	Y13	Z13	X14	Y14	Z14	X15	Y15	Z15	X16	Y16	Z16	X17	Y17	Z17	X18	Y18	Z18	X19	Y19	Z19	X20	Y20	Z20	X21	Y21	Z21	X22	Y22	Z22	X23	Y23	Z23	X24	Y24	Z24

450	1.796	1.8009295	0.099231199	0.062431475	1.1026808	0.041697181	0.1641049	1.6494468	0.078579908	0.028586616	0.9840897	0.11510542	0.20467494	1.6690121	0.10574914	0.12111222	1.0074571	0.14831324	0.11608116	1.5976718	0.021723469	0.078865821	0.91001431	0.12818977	0.15397481	1.5408857	0.48263112	-0.019343473	1.240728	0.49606679	0.26563178	1.540785	0.47858084	0.10749346	1.2325236	0.48766851	0.13812257	1.3789741	0.86661679	-0.066888305	1.3375414	0.88997596	0.30245742	1.4479484	0.95873792	-0.0039047951	1.4445952	0.96671608	0.2377492	1.2761063	1.0138324	0.10282749	1.4038236	1.4131912	-0.063999218	1.4009975	1.4328672	0.26830167	1.3323481	1.4694078	0.10245336	1.2412764	1.0821169	-0.10398142	1.2768514	1.0838947	0.35740516	1.3262846	0.84176469	-0.16357633	1.4730696	0.8840588	0.34658671
451	1.8	1.8044086	0.092713763	0.063303783	1.1029852	0.041768733	0.16455482	1.651931	0.077508958	0.029351821	0.98386935	0.11622801	0.20488888	1.6723056	0.10428004	0.12190659	1.0093364	0.14964516	0.11683623	1.5984828	0.022836873	0.079761461	0.91176482	0.13080925	0.15478036	1.5480842	0.48190499	-0.019677737	1.2468326	0.49430979	0.26584864	1.5487156	0.47838635	0.10706041	1.2394068	0.48591485	0.13873318	1.384561	0.86591998	-0.067745708	1.3434148	0.88848902	0.30182484	1.4539426	0.95785316	-0.004335256	1.4506001	0.96525085	0.2373182	1.2818532	1.0124969	0.10240734	1.4089042	1.4118484	-0.064518528	1.4060514	1.431398	0.2679033	1.3373478	1.4680962	0.1019883	1.2467724	1.0804891	-0.10453133	1.2821954	1.0823512	0.35675133	1.3322865	0.84030771	-0.16405059	1.4779792	0.88222276	0.34649994
452	1.804	1.8082536	0.086398009	0.064262424	1.1033605	0.041890108	0.16495368	1.6545699	0.076911797	0.029873816	0.98455773	0.11774995	0.20523767	1.6759039	0.1030253	0.12245974	1.0113715	0.15105657	0.11761199	1.5995597	0.024351265	0.080435803	0.9136863	0.13358751	0.15557324	1.5551105	0.48133958	-0.020103064	1.2534048	0.49255124	0.26611534	1.5564223	0.47817805	0.10663289	1.2464423	0.4840751	0.13930839	1.3901972	0.86526974	-0.068575303	1.3492583	0.88690894	0.30115128	1.4598659	0.95716422	-0.0047488127	1.4566026	0.9637891	0.23686682	1.2875114	1.0112572	0.10200277	1.4139833	1.4105255	-0.065060124	1.4111147	1.4299571	0.26752144	1.3423872	1.4669052	0.10150493	1.2523299	1.0788391	-0.10509407	1.2875453	1.080793	0.35606029	1.3383657	0.83882758	-0.16449789	1.4828536	0.88036656	0.3464343
453	1.808	1.8120805	0.08076591	0.065296307	1.1038041	0.042060952	0.16524466	1.6573913	0.076525258	0.030069481	0.98691096	0.11972267	0.20589192	1.6794514	0.10185929	0.12275387	1.0135949	0.15253731	0.11840802	1.6008695	0.025910141	0.080589027	0.91580727	0.13654518	0.156394	1.5620891	0.48108656	-0.02055373	1.2602594	0.4908425	0.26636086	1.5639285	0.4781097	0.10625221	1.2533661	0.48214003	0.13966499	1.3959224	0.864675	-0.069359512	1.3551188	0.88524283	0.30046831	1.4657137	0.95665265	-0.005181684	1.4625871	0.96233871	0.23638778	1.2930973	1.010122	0.10164232	1.4190569	1.4092373	-0.065621452	1.4161655	1.4285602	0.26716256	1.347492	1.4658501	0.10100354	1.2579617	1.0771729	-0.10565302	1.2928841	1.0792423	0.3553234	1.3445138	0.83733565	-0.16491399	1.4876855	0.87850281	0.3463901
454	1.812	1.81548	0.075977257	0.066327666	1.1043055	0.04227719	0.16534137	1.6603561	0.07613345	0.029990825	0.99080232	0.12203851	0.20693783	1.6826835	0.10078262	0.1228444	1.0160302	0.15408636	0.1192247	1.6023116	0.027292678	0.080208456	0.91813991	0.13969362	0.15728261	1.5691789	0.48125053	-0.02100522	1.2673362	0.48916522	0.26657908	1.571311	0.47837045	0.10589431	1.2601833	0.48014624	0.13981771	1.4017802	0.86417477	-0.070094573	1.3610663	0.88353188	0.29981078	1.4714883	0.95629044	-0.005649632	1.4685331	0.96092172	0.2358846	1.2986098	1.0090828	0.1013379	1.4241292	1.4080022	-0.066192973	1.4211944	1.4272224	0.26682601	1.3526712	1.4649165	0.10049216	1.2636827	1.0754939	-0.10618729	1.2981938	1.0777226	0.35453508	1.3507219	0.83584692	-0.16530419	1.4924664	0.87663681	0.34635989
455	1.816	1.8183217	0.071700726	0.067310202	1.1048608	0.042531774	0.16523581	1.6633387	0.07568653	0.029744745	0.99546347	0.12457263	0.2083163	1.6855835	0.099850832	0.12277448	1.0186988	0.15570525	0.12006416	1.6037853	0.028443691	0.07951909	0.92069163	0.14303992	0.15822983	1.5765759	0.48184361	-0.021468831	1.2745842	0.48747995	0.26681046	1.5786765	0.47909923	0.10548642	1.2670702	0.47814464	0.13987422	1.4078115	0.86381836	-0.070776549	1.3671277	0.8818022	0.29920151	1.4772064	0.95606352	-0.0061445072	1.4744269	0.959565	0.2353732	1.3040643	1.0081148	0.1010858	1.4292109	1.4068397	-0.066758744	1.4262087	1.4259649	0.26650731	1.3579063	1.464064	0.099960693	1.2694948	1.0738179	-0.10669368	1.3034669	1.0762444	0.35369833	1.3569926	0.83437695	-0.1656691	1.4971961	0.87476934	0.34633256
456	1.82	1.8207085	0.06745896	0.068240105	1.1054667	0.042803638	0.1650555	1.6661779	0.075243015	0.029405352	0.99915416	0.12715352	0.20966254	1.688273	0.099076123	0.12254674	1.0216124	0.15740479	0.12092596	1.6052127	0.029416923	0.078750329	0.92348952	0.14659005	0.15915521	1.584449	0.4827945	-0.021946098	1.282052	0.48577544	0.26712222	1.5861308	0.48031596	0.10495902	1.2743141	0.47616948	0.14000143	1.4140393	0.86363714	-0.071404011	1.3732789	0.88005333	0.29864827	1.4828926	0.95596403	-0.0066517384	1.4802682	0.95828746	0.23487198	1.3095114	1.0071816	0.10089253	1.4343103	1.4057668	-0.067303205	1.431222	1.4248101	0.26620024	1.3631613	1.4632467	0.099391291	1.2753865	1.0721794	-0.10719874	1.3087112	1.0748129	0.35283426	1.3633396	0.83294121	-0.16600488	1.5018775	0.8729054	0.34630238
457	1.824	1.8227796	0.063009207	0.069107746	1.1061094	0.043066496	0.16495354	1.6687714	0.074848275	0.028989251	1.0005735	0.12970133	0.21061358	1.6908155	0.098389206	0.12217152	1.0247631	0.15921324	0.12180509	1.6065436	0.030312106	0.077996338	0.92657186	0.15034655	0.15995778	1.5927893	0.48398766	-0.022393097	1.2899635	0.48411546	0.26758175	1.5937457	0.48191139	0.10429933	1.2820957	0.47423554	0.14033867	1.4204484	0.86362908	-0.0719955	1.3794696	0.87829011	0.29814798	1.4885763	0.95597784	-0.0071607955	1.4860606	0.95710006	0.23438887	1.3149927	1.0062621	0.10077111	1.4394214	1.4047904	-0.067822894	1.4362451	1.4237722	0.26589395	1.3684017	1.4624433	0.0987955	1.2813493	1.0706099	-0.10773353	1.3139326	1.0734457	0.35197102	1.3697735	0.83155414	-0.16631035	1.5065089	0.87106009	0.34627034
458	1.828	1.8246497	0.058388382	0.069894917	1.1067634	0.043308124	0.16497786	1.6711402	0.074476689	0.028507218	1.0006487	0.13234755	0.21123761	1.6931892	0.097692301	0.12172292	1.0281435	0.16115656	0.12269533	1.6077633	0.03122026	0.07724975	0.92995542	0.15431527	0.16059214	1.6013498	0.48526568	-0.022736425	1.2985791	0.48261407	0.26820659	1.6015228	0.48369007	0.10355616	1.2902683	0.47234163	0.1408482	1.4269626	0.86377098	-0.072579087	1.3856469	0.87653767	0.29769019	1.4942933	0.956089	-0.0076657195	1.4918026	0.9560088	0.23391657	1.3205115	1.0053532	0.10070473	1.4445282	1.4039055	-0.068324392	1.4412809	1.4228579	0.26557113	1.3736009	1.4616686	0.098213392	1.2873871	1.0691222	-0.10829933	1.3191296	1.0721788	0.35111513	1.3762891	0.83023062	-0.1665832	1.5110804	0.86925596	0.34623892
459	1.832	1.8264354	0.053855136	0.070607476	1.1073992	0.043534688	0.16507847	1.6734057	0.074062252	0.028031309	1.0013096	0.1352427	0.21184797	1.6953826	0.096941554	0.12134266	1.0317706	0.16323406	0.12359365	1.6089007	0.032163997	0.076494615	0.93362804	0.15851344	0.16107779	1.6097908	0.48642838	-0.022927549	1.3079846	0.48133159	0.2689388	1.6093807	0.48543311	0.10280114	1.2985992	0.47044874	0.14141061	1.4334572	0.86404028	-0.073161516	1.3917755	0.87482788	0.29725826	1.5000776	0.95628322	-0.0081642213	1.4974922	0.95501548	0.23343882	1.3260598	1.0044447	0.10063928	1.4496258	1.4031056	-0.06880711	1.4463223	1.4220691	0.26521548	1.3787427	1.4609405	0.097674461	1.2935046	1.0677205	-0.1088684	1.3243411	1.0710483	0.35023759	1.3828698	0.82898628	-0.16681739	1.5155752	0.8675147	0.34620866
460	1.836	1.8282406	0.049834119	0.071270818	1.1080005	0.043765899	0.16520203	1.6756994	0.073565644	0.027707804	1.0031497	0.13847504	0.21262395	1.6974026	0.09615965	0.12120406	1.035674	0.16543311	0.12449761	1.6100072	0.033079065	0.075774166	0.93757096	0.16295766	0.161453	1.617879	0.48729817	-0.022973487	1.3180425	0.48021428	0.26969588	1.6171817	0.48694933	0.10210347	1.3071083	0.46848963	0.1420582	1.4398236	0.86441761	-0.073724868	1.3978515	0.87318964	0.29683079	1.5059453	0.95654106	-0.0086561284	1.5031373	0.95411686	0.23294265	1.3316402	1.003523	0.10052616	1.4547252	1.4023887	-0.069255609	1.4513582	1.4213991	0.26482262	1.3838162	1.4602449	0.097182968	1.299695	1.0664109	-0.10941065	1.3297116	1.0700657	0.3492894	1.3895074	0.82783423	-0.16700938	1.5199799	0.86584868	0.34617714
461	1.84	1.8300746	0.046727699	0.071886508	1.1085875	0.044036568	0.16533886	1.6780525	0.073018323	0.027705227	1.0053035	0.14223569	0.21361228	1.6992197	0.095393843	0.12144412	1.0398677	0.16775885	0.12539625	1.6111006	0.033869157	0.075209654	0.9417832	0.16763726	0.16173795	1.6255508	0.48779778	-0.022921736	1.3283583	0.47915403	0.27042738	1.6247798	0.4881062	0.10153006	1.3158808	0.46644469	0.14289093	1.4460254	0.86487263	-0.074248753	1.4039027	0.87164561	0.29638365	1.5118851	0.95683605	-0.0091385321	1.5087624	0.95330211	0.2324281	1.3372591	1.0025878	0.10036524	1.459838	1.4017552	-0.069654347	1.4563845	1.4208297	0.26440235	1.3888106	1.4595587	0.09673572	1.3059438	1.0651958	-0.10990658	1.3354212	1.0692192	0.34823546	1.3962089	0.82678341	-0.16716227	1.5242965	0.8642608	0.34613884
